<?xml version="1.0"?>
<svg width="512" height="512" xmlns="http://www.w3.org/2000/svg" xmlns:svg="http://www.w3.org/2000/svg" enable-background="new 0 0 512 512" version="1.1" xml:space="preserve">
 <g class="layer" display="inline">
  <title>Layer 1</title>
  <path d="m117,315c0,-12.33 0.74,-24.22 -0.26,-35.96c-0.66,-7.77 3.16,-12.05 8.06,-16.33c6.66,-5.8 13.51,-11.38 20.16,-17.19c13.98,-12.21 27.92,-24.47 41.79,-36.8c10.34,-9.19 20.46,-18.63 30.84,-27.78c12.93,-11.38 26.03,-22.58 39.44,-34.19c4.99,4.26 10.14,8.49 15.11,12.91c15.73,13.99 31.36,28.08 47.1,42.06c14,12.43 28.08,24.77 42.13,37.14c10.96,9.65 22.02,19.2 32.82,29.03c1.56,1.42 2.69,4.18 2.69,6.32c0.16,45.15 -0.04,90.3 0.28,135.45c0.06,7.41 -10.14,17.51 -17.32,17.49c-81.97,-0.23 -163.93,-0.21 -245.9,-0.05c-7.29,0.02 -17.12,-9.82 -17.06,-17.14c0.28,-31.48 0.12,-62.97 0.12,-94.96m198.51,-37c-4.45,-5.11 -8.6,-10.52 -13.42,-15.25c-6.47,-6.35 -14.49,-10.51 -23.23,-12.64c-10.13,-2.47 -20.38,-3.19 -31.01,-2.34c-20.82,1.66 -36.74,10.88 -48.91,27.46c-8.55,11.65 -11.46,25.15 -11.76,39.03c-0.39,17.9 0.42,35.83 0.84,53.74c0.24,9.96 10.3,17.17 19.01,17.11c32.99,-0.27 65.98,-0.38 98.96,0.06c9.33,0.12 19.47,-9.86 19.18,-19.22c-0.58,-18.31 -0.39,-36.65 -0.09,-54.97c0.2,-11.83 -3.18,-22.43 -9.57,-32.98z" fill="#31C0FF" id="svg_2" opacity="1"/>
  <path d="m136.73,188.77c16.07,-14.73 31.86,-29.23 47.71,-43.68c10.22,-9.31 20.51,-18.56 30.78,-27.81c9.79,-8.81 19.51,-17.69 29.44,-26.34c6.56,-5.71 18.16,-5.59 24.76,0.05c6.11,5.23 12.1,10.6 18.05,16.01c15.95,14.55 31.82,29.19 47.78,43.73c9.97,9.08 20.05,18.04 30.06,27.08c14.05,12.69 28.05,25.43 42.12,38.09c8.8,7.91 17.69,15.72 26.54,23.57c6.87,6.11 9.31,18.95 0.76,28.1c-6.73,7.19 -19.96,6.95 -27.83,-0.15c-12.72,-11.46 -25.47,-22.88 -38.27,-34.26c-11.17,-9.93 -22.42,-19.77 -33.62,-29.67c-14.41,-12.73 -28.78,-25.51 -43.23,-38.19c-11.49,-10.08 -23.08,-20.04 -34.88,-30.27c-6.64,5.85 -13.5,11.93 -20.4,17.96c-13.2,11.57 -26.45,23.09 -39.64,34.67c-6.3,5.54 -12.49,11.21 -18.79,16.75c-13.42,11.81 -26.92,23.54 -40.32,35.38c-7.16,6.33 -13.89,13.19 -21.37,19.11c-5.89,4.66 -10.2,11.42 -18.4,13.28c-7.28,1.65 -16.43,-1.12 -20.7,-7.46c-4.49,-6.67 -4.31,-17.32 1.21,-22.59c11.33,-10.82 23.07,-21.2 34.63,-31.76c7.79,-7.12 15.57,-14.24 23.61,-21.6z" fill="#6CE0FF" id="svg_3" opacity="1"/>
  <path d="m356.77,158.27c-6.02,-5.38 -11.73,-10.58 -17.59,-15.59c-3.35,-2.86 -3,-8.91 1.25,-11.32c2.31,-1.3 5.17,-2.21 7.8,-2.26c12.63,-0.23 25.28,-0.13 37.92,-0.09c7.25,0.03 10.85,3.68 10.85,10.87c0,17.79 0,35.58 0,54.38c-13.71,-12.25 -26.84,-23.99 -40.23,-35.99z" fill="#00A4FF" id="svg_4" opacity="1"/>
  <path d="m315.77,278.27c6.13,10.28 9.51,20.88 9.31,32.71c-0.3,18.32 -0.49,36.66 0.09,54.97c0.29,9.36 -9.85,19.34 -19.18,19.22c-32.98,-0.44 -65.97,-0.33 -98.96,-0.06c-8.71,0.06 -18.77,-7.15 -19.01,-17.11c-0.42,-17.91 -1.23,-35.84 -0.84,-53.74c0.3,-13.88 3.21,-27.38 11.76,-39.03c12.17,-16.58 28.09,-25.8 48.91,-27.46c10.63,-0.85 20.88,-0.13 31.01,2.34c8.74,2.13 16.76,6.29 23.23,12.64c4.82,4.73 8.97,10.14 13.68,15.52m-63.77,63.23c0,-6.76 0,-13.52 0,-20.18c-18.67,0 -36.73,0 -55,0c0,15.11 0,29.92 0,44.72c0,6.34 3.58,9.93 9.99,9.95c9.83,0.03 19.65,0.01 29.48,0.01c5.1,0 10.19,0 15.53,0c0,-11.56 0,-22.53 0,-34.5m43.5,-20.5c-11.42,0 -22.84,0 -34.5,0c0,9.55 0,18.52 0,27.48c0,9.09 0,18.18 0,27.52c15.87,0 31.16,0.07 46.45,-0.04c4.67,-0.04 8.47,-4.17 8.53,-8.98c0.09,-7.16 0.02,-14.32 0.02,-21.47c0,-8.09 0,-16.18 0,-24.51c-6.9,0 -13.2,0 -20.5,0m-98.49,-10.68c0.62,0.56 1.2,1.52 1.87,1.6c1.97,0.21 3.99,0.08 5.98,0.08c15.59,0 31.18,0 47.14,0c0,-17.57 0,-34.67 0,-51.77c0,-0.95 0,-1.9 0,-2.79c-26.33,-3.48 -56.01,22.44 -54.99,52.88m76.39,-52.33c-3.99,-0.45 -7.99,-0.9 -12.16,-1.37c0,18.92 0,36.97 0,55.14c18.3,0 36.36,0 54.63,0c0.93,-11.95 -2.96,-22.27 -9.38,-31.7c-7.82,-11.5 -18.78,-18.65 -33.09,-22.07z" fill="#000000" id="svg_5" opacity="1"/>
  <path d="m252,342c0,11.47 0,22.44 0,34c-5.34,0 -10.43,0 -15.53,0c-9.83,0 -19.65,0.02 -29.48,-0.01c-6.41,-0.02 -9.99,-3.61 -9.99,-9.95c0,-14.8 0,-29.61 0,-44.72c18.27,0 36.33,0 55,0c0,6.66 0,13.42 0,20.68z" fill="#6CE0FF" id="svg_6" opacity="1"/>
  <path d="m296,321c6.8,0 13.1,0 20,0c0,8.33 0,16.42 0,24.51c0,7.15 0.07,14.31 -0.02,21.47c-0.06,4.81 -3.86,8.94 -8.53,8.98c-15.29,0.11 -30.58,0.04 -46.45,0.04c0,-9.34 0,-18.43 0,-27.52c0,-8.96 0,-17.93 0,-27.48c11.66,0 23.08,0 35,0z" fill="#6CE0FF" id="svg_7" opacity="1"/>
  <path d="m197.01,309.85c-1.02,-29.97 28.66,-55.89 54.99,-52.41c0,0.89 0,1.84 0,2.79c0,17.1 0,34.2 0,51.77c-15.96,0 -31.55,0 -47.14,0c-1.99,0 -4.01,0.13 -5.98,-0.08c-0.67,-0.08 -1.25,-1.04 -1.87,-2.07z" fill="#6CE0FF" id="svg_8" opacity="1"/>
  <path d="m273.83,258c13.88,3.41 24.84,10.56 32.66,22.06c6.42,9.43 10.31,19.75 9.38,31.7c-18.27,0 -36.33,0 -54.63,0c0,-18.17 0,-36.22 0,-55.14c4.17,0.47 8.17,0.92 12.59,1.38z" fill="#6CE0FF" id="svg_9" opacity="1"/>
  <path d="m68.5,88l-3.5,31l3.5,-31z" fill="#000000" id="svg_11"/>
 </g>
</svg>